<svg xmlns="http://www.w3.org/2000/svg" xmlns:xlink="http://www.w3.org/1999/xlink" width="784" viewBox="0 0 784 494">
  <defs>
    <linearGradient id="gradient" x1="391.87" y1="795.37" x2="391.87" y2="1.92" gradientTransform="translate(0 796) scale(1 -1)" gradientUnits="userSpaceOnUse">
      <stop offset="0" stop-color="#e7e6dd"/>
      <stop offset="1" stop-color="#e7e6dd" stop-opacity="0"/>
    </linearGradient>
  </defs>
  <path d="M336.43,299.01c0,57.73,32.9,107.78,80.97,132.41,.07,.15,.13,.3,.2,.45,.04,.09,.08,.18,.12,.28-48.53-24.62-81.79-74.99-81.79-133.14,0-82.4,66.79-149.19,149.19-149.19s149.19,66.8,149.19,149.19c0,36.15-12.86,69.3-34.25,95.12-.07-.18-.13-.36-.2-.55,21.21-25.7,33.95-58.65,33.95-94.58,0-82.12-66.57-148.69-148.69-148.69s-148.69,66.57-148.69,148.69Zm-74.6,0c0,104.95,72.4,192.99,169.98,216.89-.01,.17-.02,.34-.03,.51-97.85-23.92-170.45-112.18-170.45-217.39,0-123.59,100.19-223.79,223.79-223.79s223.79,100.19,223.79,223.79c0,73-34.95,137.84-89.04,178.69l-.03-.27c-.01-.1-.02-.2-.04-.3,53.83-40.77,88.6-105.38,88.6-178.11,0-123.32-99.97-223.29-223.29-223.29s-223.29,99.97-223.29,223.29Zm-74.6,0c0,140.22,96.88,257.81,227.36,289.49-.07,.16-.14,.31-.21,.46-130.65-31.76-227.65-149.53-227.65-289.95C186.74,134.22,320.33,.63,485.12,.63s298.38,133.59,298.38,298.38c0,118.19-68.72,220.33-168.38,268.65,.06-.21,.12-.43,.17-.64,99.29-48.31,167.71-150.17,167.71-268.01C783,134.49,649.64,1.13,485.12,1.13S187.24,134.49,187.24,299.01Zm260.09,196.69c0-57.73-32.9-107.78-80.97-132.41-.11-.24-.21-.48-.32-.73,48.53,24.62,81.79,74.99,81.79,133.14,0,82.4-66.8,149.19-149.19,149.19s-149.19-66.8-149.19-149.19c0-36.15,12.86-69.3,34.25-95.12,.07,.18,.13,.36,.2,.55-21.21,25.7-33.95,58.65-33.95,94.58,0,82.12,66.57,148.69,148.69,148.69s148.69-66.57,148.69-148.69Zm74.6,0c0-104.95-72.4-192.99-169.98-216.89,0-.08,0-.15,.01-.23,0-.09,.01-.18,.02-.27,97.85,23.92,170.45,112.18,170.45,217.39,0,123.6-100.19,223.79-223.79,223.79s-223.79-100.19-223.79-223.79c0-73,34.95-137.84,89.04-178.69,.02,.19,.04,.39,.07,.58-53.83,40.77-88.6,105.38-88.6,178.11,0,123.32,99.97,223.29,223.29,223.29s223.29-99.97,223.29-223.29Zm74.6,0c0-140.22-96.88-257.81-227.36-289.49,.05-.11,.1-.22,.15-.34l.06-.13c130.65,31.76,227.65,149.53,227.65,289.95,0,164.79-133.59,298.38-298.38,298.38S.25,660.49,.25,495.7C.25,377.51,68.96,275.37,168.63,227.05c-.03,.13-.07,.25-.1,.38-.02,.09-.05,.17-.07,.26C69.17,276,.75,377.86,.75,495.7c0,164.52,133.37,297.88,297.88,297.88s297.88-133.37,297.88-297.88Z" style="fill: url(#gradient); fill-rule: evenodd; isolation: isolate; opacity: .6;"/>
</svg>