<svg width="343" height="225" viewBox="0 0 343 225" fill="none" xmlns="http://www.w3.org/2000/svg">
<path opacity="0.3" fill-rule="evenodd" clip-rule="evenodd" d="M133.433 66.6806C133.433 93.4901 148.645 116.747 170.908 128.291C170.959 128.403 171.009 128.516 171.06 128.629C171.118 128.759 171.175 128.889 171.233 129.019C148.507 117.493 132.933 93.9055 132.933 66.6806C132.933 28.1004 164.209 -3.17499 202.789 -3.17499C241.369 -3.17499 272.645 28.1004 272.645 66.6806C272.645 83.6081 266.624 99.1294 256.607 111.22C256.541 111.038 256.475 110.855 256.409 110.673C266.242 98.7025 272.145 83.3809 272.145 66.6806C272.145 28.3766 241.093 -2.67499 202.789 -2.67499C181.005 -2.67499 161.566 7.36842 148.851 23.0774C209.892 38.0426 255.18 93.1203 255.18 158.776C255.18 235.936 192.629 298.487 115.469 298.487C38.3087 298.487 -24.2422 235.936 -24.2422 158.776C-24.2422 103.436 7.93298 55.6107 54.5968 32.9871C54.5392 33.1992 54.4823 33.4123 54.4262 33.6264C8.13934 56.2457 -23.7422 103.787 -23.7422 158.776C-23.7422 235.66 38.5848 297.987 115.469 297.987C192.353 297.987 254.68 235.66 254.68 158.776C254.68 93.2742 209.443 38.3388 148.506 23.5078C139.071 35.3545 133.433 50.3592 133.433 66.6806ZM98.5054 66.6808C98.5054 115.679 132.297 156.784 177.848 167.963C177.838 168.132 177.828 168.301 177.818 168.47C132.004 157.27 98.0054 115.946 98.0054 66.6808C98.0054 8.81053 144.919 -38.1026 202.789 -38.1026C260.659 -38.1026 307.572 8.81053 307.572 66.6808C307.572 100.861 291.207 131.219 265.884 150.346C265.862 150.153 265.84 149.961 265.818 149.769C290.886 130.723 307.072 100.592 307.072 66.6808C307.072 9.08667 260.383 -37.6026 202.789 -37.6026C145.195 -37.6026 98.5054 9.08667 98.5054 66.6808ZM169.406 202.379C156.691 218.088 137.253 228.131 115.469 228.131C77.1647 228.131 46.1131 197.079 46.1131 158.775C46.1131 142.075 52.0158 126.753 61.8487 114.782C61.7826 114.6 61.7168 114.418 61.6513 114.236C51.6341 126.326 45.6131 141.848 45.6131 158.775C45.6131 197.355 76.8885 228.631 115.469 228.631C154.049 228.631 185.324 197.355 185.324 158.775C185.324 131.551 169.75 107.964 147.026 96.437C147.133 96.68 147.241 96.9229 147.351 97.1656C169.613 108.71 184.824 131.966 184.824 158.775C184.824 175.097 179.186 190.102 169.752 201.948C108.815 187.117 63.5775 132.182 63.5775 66.6806C63.5775 -10.2037 125.904 -72.5307 202.789 -72.5307C279.673 -72.5307 342 -10.2037 342 66.6806C342 121.669 310.118 169.211 263.831 191.83C263.81 191.91 263.789 191.99 263.768 192.07C263.732 192.203 263.697 192.336 263.66 192.469C310.325 169.846 342.5 122.021 342.5 66.6806C342.5 -10.4798 279.949 -73.0307 202.789 -73.0307C125.628 -73.0307 63.0775 -10.4798 63.0775 66.6806C63.0775 132.336 108.365 187.413 169.406 202.379ZM219.752 158.775C219.752 109.777 185.96 68.6718 140.41 57.4929C140.413 57.4439 140.416 57.3949 140.418 57.346C140.425 57.2257 140.433 57.1055 140.44 56.9854C186.254 68.1859 220.252 109.51 220.252 158.775C220.252 216.645 173.339 263.558 115.469 263.558C57.5985 263.558 10.6854 216.645 10.6854 158.775C10.6854 124.595 27.0509 94.237 52.3736 75.1101C52.3954 75.3022 52.4176 75.4944 52.4402 75.687C27.3719 94.7327 11.1854 124.864 11.1854 158.775C11.1854 216.369 57.8747 263.058 115.469 263.058C173.063 263.058 219.752 216.369 219.752 158.775Z" fill="url(#paint0_linear_479_4164)"/>
<defs>
<linearGradient id="paint0_linear_479_4164" x1="569.129" y1="-73.0309" x2="569.129" y2="298.487" gradientUnits="userSpaceOnUse">
<stop stop-color="#E7E6DD"/>
<stop offset="1" stop-color="#E7E6DD" stop-opacity="0"/>
</linearGradient>
</defs>
</svg>
